<svg xmlns="http://www.w3.org/2000/svg" viewBox="0 150 500 180" version="1.1" width="500" height="200"><g id="root" stroke="none" stroke-width="1" fill="none" fill-rule="evenodd"><path id="background" fill="#191a23" x="0" y="0" width="500" height="500" d="M0 0h500v500H0z"/><g id="shape" transform="rotate(90 2 192)" fill-rule="nonzero"><path d="M60 15c-24.815 0 -45 20.185 -45 45 0 14.995 7.595 29.06 20 37.375V115h50V97.375c12.405 -8.315 20 -22.38 20 -37.375 0 -24.815 -20.185 -45 -45 -45m0 55c-5.525 0 -10 -4.475 -10 -10s4.475 -10 10 -10 10 4.475 10 10 -4.475 10 -10 10" id="shape.accent" fill="#f1ea65"/><path d="M30.855 128.05c-0.53 1.385 -0.855 2.875 -0.855 4.45 0 6.895 5.605 12.5 12.5 12.5h35c6.895 0 12.5 -5.605 12.5 -12.5 0 -1.575 -0.325 -3.065 -0.855 -4.45C92.65 125.83 95 121.95 95 117.5c0 -6.895 -5.605 -12.5 -12.5 -12.5H65V74.08c5.805 -2.07 10 -7.57 10 -14.08 0 -8.27 -6.73 -15 -15 -15s-15 6.73 -15 15c0 6.51 4.195 12.01 10 14.08V105H37.5c-6.895 0 -12.5 5.605 -12.5 12.5 0 4.45 2.35 8.33 5.855 10.55M60 55c2.76 0 5 2.24 5 5s-2.24 5 -5 5 -5 -2.24 -5 -5 2.24 -5 5 -5m17.5 80H42.5a2.507 2.507 0 0 1 -2.5 -2.5c0 -1.375 1.125 -2.5 2.5 -2.5h35c1.375 0 2.5 1.125 2.5 2.5s-1.125 2.5 -2.5 2.5M37.5 115h45c1.375 0 2.5 1.125 2.5 2.5s-1.125 2.5 -2.5 2.5H37.5a2.507 2.507 0 0 1 -2.5 -2.5c0 -1.375 1.125 -2.5 2.5 -2.5M55 0h10v10h-10zM39.66 14.001 30.999 19 26 10.339l8.661 -4.999zm-20 16.337L14.661 39 6 34.001l4.999 -8.661zM0 55h10v10H0zm19.66 34.001L10.999 94 6 85.339l8.661 -4.999zm95 -3.663L109.661 94 101 89.001l4.999 -8.661zM110 55h10v10h-10zm4.66 -20.999L105.999 39 101 30.339l8.661 -4.999zm-20 -23.663L89.661 19 81 14.001l4.999 -8.661z" fill="#333"/></g><g id="Group" transform="translate(210 206)"><path id="Rectangle-45" x="0" y="0" width="241" height="55" d="M0 0h241v55H0z"/><text id="headerWord_1" font-family="Nunito Sans" font-size="32.404577952206964" font-weight="800" line-spacing="55" letter-spacing="3.240457795220696" fill="#fff" data-text-alignment="L" font-style="normal"><tspan x="0" y="36">Triasiaglobal</tspan></text></g><g id="Group-2" transform="translate(210 267)"><path id="Rectangle" x="0" y="0" width="240" height="35" d="M0 0h240v35H0z"/><text id="headerWord_2" font-family="Nunito Sans" font-size="35" font-weight="800" line-spacing="35" fill="#333" display="none" data-text-alignment="L" font-style="normal"><tspan x="4" y="32">L</tspan></text></g></g></svg>